{
  "accessors": [
    {
      "bufferView": 2,
      "componentType": 5126,
      "count": 33708,
      "max": [
        0.98723137378692627,
        0.99757671356201172,
        0.98723149299621582
      ],
      "min": [
        -0.98723101615905762,
        -0.99757671356201172,
        -0.98723101615905762
      ],
      "type": "VEC3"
    },
    {
      "bufferView": 2,
      "byteOffset": 404496,
      "componentType": 5126,
      "count": 33708,
      "max": [
        1,
        1,
        1
      ],
      "min": [
        -1,
        -1,
        -1
      ],
      "type": "VEC3"
    },
    {
      "bufferView": 1,
      "componentType": 5126,
      "count": 33708,
      "max": [
        1.0000003576278687,
        1.0000001192092896
      ],
      "min": [
        0,
        0
      ],
      "type": "VEC2"
    },
    {
      "bufferView": 0,
      "componentType": 5125,
      "count": 190464,
      "max": [
        33707
      ],
      "min": [
        0
      ],
      "type": "SCALAR"
    },
    {
      "bufferView": 2,
      "byteOffset": 808992,
      "componentType": 5126,
      "count": 8704,
      "max": [
        0.99779784679412842,
        0,
        0.99779790639877319
      ],
      "min": [
        -0.99779790639877319,
        0,
        -0.99779784679412842
      ],
      "type": "VEC3"
    },
    {
      "bufferView": 2,
      "byteOffset": 913440,
      "componentType": 5126,
      "count": 8704,
      "max": [
        0,
        1,
        -0
      ],
      "min": [
        0,
        1,
        -0
      ],
      "type": "VEC3"
    },
    {
      "bufferView": 1,
      "byteOffset": 269664,
      "componentType": 5126,
      "count": 8704,
      "max": [
        0,
        0
      ],
      "min": [
        0,
        0
      ],
      "type": "VEC2"
    },
    {
      "bufferView": 0,
      "byteOffset": 761856,
      "componentType": 5125,
      "count": 49152,
      "max": [
        8703
      ],
      "min": [
        0
      ],
      "type": "SCALAR"
    },
    {
      "bufferView": 2,
      "byteOffset": 1017888,
      "componentType": 5126,
      "count": 8704,
      "max": [
        0.99779784679412842,
        0,
        0.99779790639877319
      ],
      "min": [
        -0.99779790639877319,
        0,
        -0.99779784679412842
      ],
      "type": "VEC3"
    },
    {
      "bufferView": 2,
      "byteOffset": 1122336,
      "componentType": 5126,
      "count": 8704,
      "max": [
        0,
        1,
        -0
      ],
      "min": [
        0,
        1,
        -0
      ],
      "type": "VEC3"
    },
    {
      "bufferView": 1,
      "byteOffset": 339296,
      "componentType": 5126,
      "count": 8704,
      "max": [
        0,
        0
      ],
      "min": [
        0,
        0
      ],
      "type": "VEC2"
    },
    {
      "bufferView": 0,
      "byteOffset": 958464,
      "componentType": 5125,
      "count": 49152,
      "max": [
        8703
      ],
      "min": [
        0
      ],
      "type": "SCALAR"
    },
    {
      "bufferView": 2,
      "byteOffset": 1226784,
      "componentType": 5126,
      "count": 8704,
      "max": [
        0.99779784679412842,
        0,
        0.99779790639877319
      ],
      "min": [
        -0.99779790639877319,
        0,
        -0.99779784679412842
      ],
      "type": "VEC3"
    },
    {
      "bufferView": 2,
      "byteOffset": 1331232,
      "componentType": 5126,
      "count": 8704,
      "max": [
        0,
        1,
        -0
      ],
      "min": [
        0,
        1,
        -0
      ],
      "type": "VEC3"
    },
    {
      "bufferView": 1,
      "byteOffset": 408928,
      "componentType": 5126,
      "count": 8704,
      "max": [
        0,
        0
      ],
      "min": [
        0,
        0
      ],
      "type": "VEC2"
    },
    {
      "bufferView": 0,
      "byteOffset": 1155072,
      "componentType": 5125,
      "count": 49152,
      "max": [
        8703
      ],
      "min": [
        0
      ],
      "type": "SCALAR"
    }
  ],
  "asset": {
    "extras": {
      "author": "PatelDev (https://sketchfab.com/PatelDev)",
      "license": "CC-BY-4.0 (http://creativecommons.org/licenses/by/4.0/)",
      "source": "https://sketchfab.com/3d-models/uranus-9c6478f4885d4a0c874d4b63226ac5e0",
      "title": "Uranus"
    },
    "generator": "Sketchfab-9.14.0",
    "version": "2.0"
  },
  "bufferViews": [
    {
      "buffer": 0,
      "byteLength": 1351680,
      "byteOffset": 0,
      "name": "floatBufferViews",
      "target": 34963
    },
    {
      "buffer": 0,
      "byteLength": 478560,
      "byteOffset": 1351680,
      "byteStride": 8,
      "name": "floatBufferViews",
      "target": 34962
    },
    {
      "buffer": 0,
      "byteLength": 1435680,
      "byteOffset": 1830240,
      "byteStride": 12,
      "name": "floatBufferViews",
      "target": 34962
    }
  ],
  "buffers": [
    {
      "byteLength": 3265920,
      "uri": "scene.bin"
    }
  ],
  "images": [
    {
      "uri": "textures/Scene_-_Root_baseColor.jpeg"
    }
  ],
  "materials": [
    {
      "doubleSided": true,
      "name": "Scene_-_Root",
      "pbrMetallicRoughness": {
        "baseColorFactor": [
          1,
          1,
          1,
          1
        ],
        "baseColorTexture": {
          "index": 0,
          "texCoord": 0
        },
        "metallicFactor": 0,
        "roughnessFactor": 0.5
      }
    }
  ],
  "meshes": [
    {
      "primitives": [
        {
          "attributes": {
            "NORMAL": 1,
            "POSITION": 0,
            "TEXCOORD_0": 2
          },
          "indices": 3,
          "material": 0,
          "mode": 4
        }
      ]
    },
    {
      "primitives": [
        {
          "attributes": {
            "NORMAL": 5,
            "POSITION": 4,
            "TEXCOORD_0": 6
          },
          "indices": 7,
          "material": 0,
          "mode": 4
        }
      ]
    },
    {
      "primitives": [
        {
          "attributes": {
            "NORMAL": 9,
            "POSITION": 8,
            "TEXCOORD_0": 10
          },
          "indices": 11,
          "material": 0,
          "mode": 4
        }
      ]
    },
    {
      "primitives": [
        {
          "attributes": {
            "NORMAL": 13,
            "POSITION": 12,
            "TEXCOORD_0": 14
          },
          "indices": 15,
          "material": 0,
          "mode": 4
        }
      ]
    }
  ],
  "nodes": [
    {
      "children": [
        1
      ],
      "name": "RootNode (gltf orientation matrix)",
      "rotation": [
        -0.70710678118654746,
        -0,
        -0,
        0.70710678118654757
      ]
    },
    {
      "children": [
        2
      ],
      "name": "RootNode (model correction matrix)"
    },
    {
      "children": [
        3
      ],
      "name": "root"
    },
    {
      "children": [
        4,
        6,
        8,
        10
      ],
      "matrix": [
        1,
        0,
        0,
        0,
        0,
        2.2204460492503131e-16,
        1,
        0,
        0,
        -1,
        2.2204460492503131e-16,
        0,
        0,
        0,
        0,
        1
      ],
      "name": "GLTF_SceneRootNode"
    },
    {
      "children": [
        5
      ],
      "matrix": [
        1.7412456274032593,
        0,
        0,
        0,
        0,
        1.7412456274032593,
        0,
        0,
        0,
        0,
        1.7412456274032593,
        0,
        0,
        0,
        0,
        1
      ],
      "name": "Sphere_2"
    },
    {
      "mesh": 0,
      "name": ""
    },
    {
      "children": [
        7
      ],
      "matrix": [
        2.3758435249328613,
        0,
        0,
        0,
        0,
        2.3758435249328613,
        0,
        0,
        0,
        0,
        2.3758435249328613,
        0,
        0,
        0,
        0,
        1
      ],
      "name": "Circle_3"
    },
    {
      "mesh": 1,
      "name": ""
    },
    {
      "children": [
        9
      ],
      "matrix": [
        2.5687441825866699,
        0,
        0,
        0,
        0,
        2.5687441825866699,
        0,
        0,
        0,
        0,
        2.5687441825866699,
        0,
        0,
        0,
        0,
        1
      ],
      "name": "Circle.001_4"
    },
    {
      "mesh": 2,
      "name": ""
    },
    {
      "children": [
        11
      ],
      "matrix": [
        2.7647755146026611,
        0,
        0,
        0,
        0,
        2.7647755146026611,
        0,
        0,
        0,
        0,
        2.7647755146026611,
        0,
        0,
        0,
        0,
        1
      ],
      "name": "Circle.002_5"
    },
    {
      "mesh": 3,
      "name": ""
    }
  ],
  "samplers": [
    {
      "magFilter": 9729,
      "minFilter": 9987,
      "wrapS": 10497,
      "wrapT": 10497
    }
  ],
  "scene": 0,
  "scenes": [
    {
      "name": "OSG_Scene",
      "nodes": [
        0
      ]
    }
  ],
  "textures": [
    {
      "sampler": 0,
      "source": 0
    }
  ]
}

